#!OML:ASF Y:\EmotionMaleHayes\Project 1\Capture day 1\Session 1\Male1.ASF
:FULLY-SPECIFIED
:DEGREES
1978
root -18.8079 16.6697 -18.7815 737.929 -75.8449 -24.2643
lowerback 8.72714 0.526271 1.81495
upperback 3.18647 0.806839 2.63886
thorax -1.60391 0.355033 1.62517
lowerneck -21.58 3.16074 5.0686
upperneck 28.7838 3.5671 -3.60861
head 13.494 1.49451 -1.68009
rclavicle 1.13369e-015 3.01159e-014
rhumerus -30.387 -1.35997 -81.7715
rradius 29.4028
rwrist 10.4053
rhand -11.3724 -34.4385
rfingers 7.12502
rthumb 14.6617 -63.9002
lclavicle 1.13369e-015 3.01159e-014
lhumerus -30.9794 -4.08442 88.0553
lradius 24.2877
lwrist -15.3828
lhand -13.6366 -20.5529
lfingers 7.12502
lthumb 12.4795 9.0545
rfemur -5.58072 -5.75885 24.6863
rtibia 17.7901
rfoot -10.4563 -0.541078
rtoes 15.059
lfemur 3.32188 1.17085 -13.1766
ltibia 61.213
lfoot 0.865825 1.55867
ltoes 9.75508
1979
root -18.9448 16.7054 -18.7589 736.002 -76.0459 -22.3739
lowerback 8.74672 0.736377 1.35395
upperback 3.29335 1.04337 2.51451
thorax -1.51446 0.472256 1.73246
lowerneck -21.532 3.08864 4.95794
upperneck 28.7128 3.50392 -3.59734
head 13.4474 1.45799 -1.66727
rclavicle -4.82053e-015 -2.83765e-014
rhumerus -29.5049 -1.69858 -81.6391
rradius 29.7595
rwrist 10.5584
rhand -11.6657 -34.0237
rfingers 7.12502
rthumb 14.3792 -63.5057
lclavicle -4.82053e-015 -2.83765e-014
lhumerus -31.3839 -3.94045 87.8963
lradius 23.5794
lwrist -16.9997
lhand -12.5814 -20.5893
lfingers 7.12502
lthumb 13.4967 8.95332
rfemur -4.4884 -5.9377 23.9503
rtibia 17.076
rfoot -10.3024 -0.441553
rtoes 14.9042
lfemur 2.06401 1.82271 -13.6903
ltibia 61.8977
lfoot -0.2646 2.35243
ltoes 10.3769
1980
root -19.085 16.7426 -18.729 735.803 -76.2522 -22.344
lowerback 8.70025 1.04853 1.44761
upperback 3.48148 1.45327 2.44811
thorax -1.29863 0.676291 1.57316
lowerneck -21.5849 2.91953 4.80521
upperneck 28.6894 3.27182 -3.46256
head 13.4296 1.36022 -1.62857
rclavicle -7.08792e-015 -1.98785e-016
rhumerus -28.6496 -1.50379 -81.7119
rradius 30.278
rwrist 9.84586
rhand -11.7946 -34.1707
rfingers 7.12502
rthumb 14.255 -63.6615
lclavicle -7.08792e-015 -1.98785e-016
lhumerus -31.6292 -3.93994 87.6949
lradius 22.8003
lwrist -18.9014
lhand -11.6837 -20.9959
lfingers 7.12502
lthumb 14.3618 8.48729
rfemur -3.20862 -5.87227 23.814
rtibia 16.1382
rfoot -9.96658 -0.0794542
rtoes 16.0681
lfemur 1.04225 2.60482 -13.678
ltibia 62.278
lfoot -1.45525 2.66902
ltoes 10.3106
1981
root -19.2144 16.778 -18.7091 735.099 -76.2239 -21.7543
lowerback 8.82312 1.34105 1.503
upperback 3.51786 1.84664 2.26977
thorax -1.32789 0.874423 1.31756
lowerneck -21.5034 2.75023 5.04007
upperneck 28.6582 2.9488 -3.47841
head 13.3874 1.24558 -1.73237
rclavicle -6.38829e-015 -5.75233e-015
rhumerus -27.9297 -0.930829 -82.0267
rradius 30.6622
rwrist 8.47058
rhand -12.3268 -34.5282
rfingers 7.12502
rthumb 13.7421 -64.0544
lclavicle -6.38829e-015 -5.75233e-015
lhumerus -32.1847 -4.23908 87.4059
lradius 22.4191
lwrist -20.8292
lhand -10.7268 -21.231
lfingers 7.12502
lthumb 15.2837 8.18432
rfemur -2.16204 -6.00565 23.5846
rtibia 15.5154
rfoot -10.3971 0.101982
rtoes 14.9647
lfemur -0.220799 3.0978 -13.7527
ltibia 62.648
lfoot -2.6728 2.8489
ltoes 9.29624
1982
root -19.3207 16.8039 -18.7077 734.115 -75.5534 -20.6576
lowerback 9.123 1.52543 1.65435
upperback 3.26264 2.12411 1.98556
thorax -1.74417 1.01706 0.899974
lowerneck -21.1172 2.48405 5.40058
upperneck 28.6736 2.39031 -3.3133
head 13.287 1.06752 -1.82933
rclavicle -3.72349e-014 1.73937e-015
rhumerus -27.4953 -1.16938 -82.2628
rradius 30.9857
rwrist 7.50944
rhand -12.857 -34.7547
rfingers 7.12502
rthumb 13.2311 -64.3148
lclavicle -3.72349e-014 1.73937e-015
lhumerus -33.0283 -5.16601 87.0972
lradius 22.1921
lwrist -22.3124
lhand -9.88624 -21.697
lfingers 7.12502
lthumb 16.0932 7.65476
rfemur -1.38942 -6.10368 23.4923
rtibia 14.7885
rfoot -10.8923 -0.432339
rtoes 14.6565
lfemur -2.13432 3.06316 -13.8007
ltibia 63.191
lfoot -3.65637 2.9952
ltoes 8.23062
